<svg width="36" height="36" viewBox="0 0 36 36" fill="none" xmlns="http://www.w3.org/2000/svg">
<rect width="36" height="36" rx="8" fill="#1B2D51" fill-opacity="0.1"/>
<path d="M20.9334 19.185C20.9334 19.7686 20.7603 20.3392 20.4361 20.8244C20.1118 21.3097 19.651 21.6879 19.1118 21.9112C18.5726 22.1346 17.9793 22.193 17.4069 22.0792C16.8345 21.9653 16.3087 21.6843 15.896 21.2716C15.4833 20.8589 15.2023 20.3331 15.0884 19.7607C14.9745 19.1883 15.033 18.595 15.2563 18.0558C15.4797 17.5166 15.8579 17.0557 16.3431 16.7315C16.8284 16.4073 17.3989 16.2342 17.9825 16.2342C18.7649 16.2351 19.5149 16.5462 20.0681 17.0994C20.6213 17.6526 20.9325 18.4027 20.9334 19.185ZM27.1317 14.995V23.3767C27.1317 23.6424 27.0794 23.9055 26.9777 24.151C26.876 24.3965 26.727 24.6195 26.5391 24.8074C26.3512 24.9953 26.1282 25.1443 25.8827 25.246C25.6372 25.3477 25.3741 25.4 25.1084 25.4H10.8567C10.591 25.4 10.3279 25.3477 10.0824 25.246C9.83693 25.1443 9.61388 24.9953 9.42599 24.8074C9.23811 24.6195 9.08907 24.3965 8.98739 24.151C8.88571 23.9055 8.83337 23.6424 8.83337 23.3767V14.995C8.83337 14.4584 9.04655 13.9438 9.42599 13.5643C9.80544 13.1849 10.3201 12.9717 10.8567 12.9717H13.345V12.2717C13.3449 12.0391 13.3907 11.8088 13.4796 11.5939C13.5686 11.379 13.699 11.1837 13.8635 11.0193C14.0279 10.8548 14.2232 10.7244 14.4381 10.6354C14.653 10.5465 14.8833 10.5007 15.1159 10.5009H20.8492C21.0818 10.5007 21.3121 10.5465 21.527 10.6354C21.7419 10.7244 21.9372 10.8548 22.1016 11.0193C22.2661 11.1837 22.3965 11.379 22.4855 11.5939C22.5744 11.8088 22.6202 12.0391 22.62 12.2717V12.9709H25.1084C25.6451 12.9711 26.1597 13.1844 26.5391 13.564C26.9186 13.9436 27.1317 14.4583 27.1317 14.995ZM22.4509 19.185C22.4509 18.3013 22.1888 17.4374 21.6978 16.7025C21.2068 15.9677 20.509 15.395 19.6925 15.0568C18.876 14.7186 17.9776 14.6301 17.1108 14.8025C16.244 14.975 15.4479 15.4005 14.823 16.0254C14.198 16.6503 13.7725 17.4465 13.6001 18.3133C13.4277 19.1801 13.5161 20.0785 13.8543 20.895C14.1925 21.7115 14.7653 22.4093 15.5001 22.9003C16.2349 23.3913 17.0988 23.6534 17.9825 23.6534C19.1672 23.652 20.303 23.1808 21.1407 22.3431C21.9784 21.5055 22.4496 20.3697 22.4509 19.185Z" fill="#1B2D51"/>
</svg>
