<svg width="16" height="16" viewBox="0 0 16 16" fill="none" xmlns="http://www.w3.org/2000/svg">
<g clip-path="url(#clip0_510_4800)">
<path fill-rule="evenodd" clip-rule="evenodd" d="M0.499756 8C0.499756 3.85787 3.85763 0.5 7.99976 0.5C12.1419 0.5 15.4998 3.85787 15.4998 8C15.4998 12.1421 12.1419 15.5 7.99976 15.5C3.85763 15.5 0.499756 12.1421 0.499756 8ZM11.1462 11.8535C11.3415 12.0488 11.6581 12.0488 11.8533 11.8535C12.0486 11.6583 12.0486 11.3417 11.8533 11.1464L4.78223 4.07535C4.58698 3.8801 4.27041 3.8801 4.07513 4.07535C3.87988 4.27062 3.87988 4.5872 4.07513 4.78247L11.1462 11.8535Z" fill="#BE151E"/>
</g>
<defs>
<clipPath id="clip0_510_4800">
<rect width="16" height="16" fill="white"/>
</clipPath>
</defs>
</svg>
