<svg width="30" height="30" viewBox="0 0 30 30" fill="none" xmlns="http://www.w3.org/2000/svg">
<rect width="30" height="30" rx="4" fill="#EE2934" fill-opacity="0.1"/>
<rect x="0.5" y="0.5" width="29" height="29" rx="3.5" stroke="#EE2934" stroke-opacity="0.1"/>
<path d="M17.2392 9.09067C18.3117 9.09067 19.3917 9.09067 20.4717 9.09067C20.5314 9.08164 20.5924 9.08684 20.6498 9.10585C20.7071 9.12486 20.7592 9.15714 20.8017 9.20006C20.8442 9.24299 20.876 9.29534 20.8945 9.35287C20.913 9.4104 20.9176 9.47147 20.908 9.53113V10.1059C20.908 10.4468 20.7628 10.5675 20.4308 10.5675H9.60689C9.37848 10.5675 9.21485 10.5491 9.12485 10.3391C9.10173 10.2749 9.09154 10.2068 9.09485 10.1386V9.53658C9.09485 9.24817 9.22167 9.08931 9.52167 9.08931H12.761C12.7641 9.08951 12.7672 9.08905 12.7701 9.08795C12.773 9.08686 12.7756 9.08516 12.7778 9.08296C12.78 9.08077 12.7817 9.07813 12.7828 9.07523C12.7839 9.07233 12.7844 9.06922 12.7842 9.06613C12.7842 8.83976 12.7842 8.61613 12.7842 8.39249C12.7764 8.22803 12.8237 8.06567 12.9185 7.93107C13.0133 7.79648 13.1503 7.69734 13.3078 7.64931C13.4588 7.61911 13.6128 7.60675 13.7667 7.61249C14.6503 7.61249 15.5339 7.61249 16.4176 7.61249C16.5886 7.59967 16.7588 7.64645 16.8993 7.74488C17.0397 7.84332 17.1417 7.98735 17.188 8.15249C17.2108 8.26094 17.2202 8.37176 17.216 8.48249V9.06408C17.2158 9.06718 17.2162 9.07028 17.2173 9.07318C17.2184 9.07609 17.2201 9.07873 17.2223 9.08092C17.2245 9.08311 17.2272 9.08481 17.2301 9.08591C17.233 9.087 17.2361 9.08746 17.2392 9.08726V9.09067Z" fill="#F69595" fill-opacity="0.8"/>
<path d="M11.6146 22.3439C11.3087 22.2715 11.0337 22.1038 10.8292 21.8649C10.6248 21.6261 10.5016 21.3284 10.4774 21.015C10.4678 20.9045 10.4658 20.7661 10.4542 20.6414C10.4221 20.3093 10.4058 19.9561 10.3806 19.6445C10.3485 19.2661 10.3253 18.8598 10.3001 18.512C10.171 16.7448 10.0449 14.9782 9.92169 13.2123C9.92169 13.1659 9.90532 13.0118 9.88487 12.7534C9.86646 12.527 9.85282 12.3014 9.84328 12.0716C9.84308 12.0658 9.84509 12.0602 9.84889 12.0559C9.8527 12.0516 9.85801 12.0489 9.86374 12.0484H20.1374C20.143 12.0486 20.1484 12.0508 20.1526 12.0545C20.1568 12.0582 20.1596 12.0633 20.1606 12.0689C20.1652 12.1032 20.1652 12.1381 20.1606 12.1725C19.9574 15.068 19.7544 17.9634 19.5517 20.8589C19.5448 21.0087 19.5247 21.1577 19.4917 21.3041C19.4141 21.5824 19.2564 21.8319 19.0382 22.0213C18.82 22.2108 18.5509 22.332 18.2644 22.3698C18.111 22.3841 17.9569 22.3895 17.8028 22.3861H12.0646C11.9136 22.3872 11.7628 22.373 11.6146 22.3439ZM13.4351 16.562C13.6451 16.7741 13.8571 16.9868 14.0699 17.1988C14.072 17.2009 14.0737 17.2034 14.0748 17.2062C14.076 17.2089 14.0766 17.2119 14.0766 17.2149C14.0766 17.2178 14.076 17.2208 14.0748 17.2236C14.0737 17.2263 14.072 17.2288 14.0699 17.2309C13.6431 17.6598 13.2183 18.0893 12.7894 18.5182C12.5706 18.737 12.533 18.917 12.769 19.1502L13.0669 19.4475C13.1124 19.513 13.1781 19.5618 13.2539 19.5864C13.3298 19.6111 13.4116 19.6102 13.4869 19.5839C13.574 19.5402 13.6516 19.4797 13.7153 19.4059C14.1374 18.9859 14.5621 18.5659 14.9842 18.1459C14.9863 18.1438 14.9888 18.1421 14.9915 18.1409C14.9943 18.1398 14.9972 18.1392 15.0002 18.1392C15.0032 18.1392 15.0061 18.1398 15.0089 18.1409C15.0116 18.1421 15.0141 18.1438 15.0162 18.1459C15.4253 18.555 15.8344 18.9607 16.2435 19.3684C16.3201 19.4538 16.4107 19.5255 16.5115 19.5804C16.5804 19.6054 16.6554 19.6084 16.7261 19.589C16.7968 19.5696 16.8597 19.5287 16.9062 19.472C17.1462 19.2389 17.481 19.0084 17.3631 18.722C17.316 18.6332 17.2534 18.5535 17.1783 18.4868C16.7631 18.0668 16.3451 17.6495 15.9278 17.2295C15.9257 17.2274 15.924 17.2249 15.9229 17.2222C15.9217 17.2194 15.9211 17.2165 15.9211 17.2135C15.9211 17.2105 15.9217 17.2076 15.9229 17.2048C15.924 17.2021 15.9257 17.1996 15.9278 17.1975L17.1946 15.9238C17.2611 15.8632 17.3164 15.7914 17.3583 15.7118C17.3871 15.6404 17.3922 15.5617 17.3726 15.4872C17.3531 15.4128 17.31 15.3466 17.2499 15.2986C17.0951 15.1439 16.9771 15.0259 16.8994 14.9523C16.8526 14.8954 16.7892 14.8545 16.7181 14.8355C16.6469 14.8164 16.5716 14.82 16.5026 14.8459C16.4146 14.8951 16.3352 14.9582 16.2674 15.0327C15.8501 15.4479 15.4301 15.8659 15.0101 16.2811C15.008 16.2833 15.0055 16.2849 15.0028 16.2861C15 16.2872 14.9971 16.2878 14.9941 16.2878C14.9911 16.2878 14.9881 16.2872 14.9854 16.2861C14.9826 16.2849 14.9801 16.2833 14.9781 16.2811L13.6976 15.0075C13.6422 14.9461 13.5767 14.8947 13.504 14.8554C13.2851 14.7539 13.1487 14.8875 12.9824 15.0559C12.7335 15.3048 12.4008 15.5264 12.7656 15.8932C12.9912 16.1161 13.2128 16.3377 13.4344 16.5613L13.4351 16.562Z" fill="#F69595" fill-opacity="0.8"/>
</svg>
