<svg width="16" height="16" viewBox="0 0 16 16" fill="none" xmlns="http://www.w3.org/2000/svg">
<path d="M8 8.46875C8.25888 8.46875 8.46875 8.25888 8.46875 8C8.46875 7.74112 8.25888 7.53125 8 7.53125C7.74112 7.53125 7.53125 7.74112 7.53125 8C7.53125 8.25888 7.74112 8.46875 8 8.46875Z" fill="#BE151E"/>
<path d="M7.33106 13.8323L10.1881 8.78556C10.5622 8.12469 11.239 7.73012 11.9985 7.73012C12.7579 7.73012 13.4347 8.12469 13.8088 8.78556L14.0169 9.15309C14.0882 8.77687 14.125 8.39128 14.125 8C14.125 6.36394 13.4879 4.82584 12.3311 3.66897C11.1742 2.51212 9.63603 1.875 8 1.875C6.36397 1.875 4.82584 2.51212 3.66897 3.66894C2.51212 4.82584 1.875 6.36394 1.875 8C1.875 9.63606 2.51212 11.1742 3.66894 12.331C4.63825 13.3003 5.87528 13.9045 7.21322 14.075C7.247 13.9926 7.28622 13.9115 7.33106 13.8323ZM5.17188 8.45312C4.913 8.45312 4.70312 8.24325 4.70312 7.98438C4.70312 7.7255 4.913 7.51562 5.17188 7.51562H6.67975C6.82384 7.12406 7.13756 6.814 7.53125 6.67438V5.15625C7.53125 4.89738 7.74113 4.6875 8 4.6875C8.25887 4.6875 8.46875 4.89738 8.46875 5.15625V6.67438C9.01434 6.86788 9.40625 7.38891 9.40625 8C9.40625 8.77541 8.77544 9.40625 8 9.40625C7.38312 9.40625 6.85812 9.00681 6.66909 8.45312H5.17188Z" fill="#BE151E"/>
<path d="M7.34425 15.9049C7.17881 15.6212 7.08506 15.3127 7.06309 15.0008C5.53178 14.7991 4.11653 14.1044 3.00606 12.9939C1.67212 11.66 0.9375 9.88647 0.9375 8C0.9375 6.11353 1.67212 4.34 3.00603 3.00603C4.34 1.67213 6.11356 0.9375 8 0.9375C9.88644 0.9375 11.66 1.67213 12.994 3.00606C14.3279 4.34 15.0625 6.11353 15.0625 8C15.0625 8.80078 14.9297 9.581 14.6753 10.3161L15.2651 11.3581C15.7461 10.3191 16 9.17913 16 8C16 5.86313 15.1678 3.85413 13.6569 2.34313C12.1458 0.832156 10.1369 0 8 0C5.86312 0 3.85416 0.832156 2.34313 2.34313C0.832156 3.85413 0 5.86313 0 8C0 10.1369 0.832156 12.1459 2.34313 13.6569C3.70906 15.0228 5.48194 15.8338 7.38831 15.977C7.37328 15.9533 7.35847 15.9294 7.34425 15.9049Z" fill="#BE151E"/>
<path d="M15.85 14.2943L12.993 9.24754C12.7875 8.88447 12.4157 8.66772 11.9985 8.66772C11.5813 8.66772 11.2095 8.88447 11.004 9.24754L8.14696 14.2943C7.94442 14.652 7.94711 15.0777 8.15421 15.4329C8.3613 15.788 8.73039 16.0001 9.14152 16.0001H14.8555C15.2667 16.0001 15.6358 15.788 15.8429 15.4329C16.0499 15.0777 16.0526 14.652 15.85 14.2943ZM12.4577 14.4791C12.4135 14.6955 12.2194 14.8559 11.998 14.8559C11.8025 14.8559 11.6225 14.7296 11.557 14.5452C11.4916 14.3609 11.5489 14.1492 11.7008 14.025C11.8527 13.9009 12.0704 13.8851 12.2389 13.9853C12.4065 14.0851 12.4967 14.2877 12.4577 14.4791ZM12.4673 12.5654C12.4673 12.8243 12.2574 13.0342 11.9985 13.0342C11.7396 13.0342 11.5298 12.8243 11.5298 12.5654V11.0607C11.5298 10.8018 11.7396 10.5919 11.9985 10.5919C12.2574 10.5919 12.4673 10.8018 12.4673 11.0607V12.5654Z" fill="#BE151E"/>
</svg>
