<svg width="36" height="36" viewBox="0 0 36 36" fill="none" xmlns="http://www.w3.org/2000/svg">
<rect width="36" height="36" rx="8" fill="#1B2D51" fill-opacity="0.1"/>
<path d="M8.83337 12.9017C8.83337 12.5355 8.97885 12.1843 9.23781 11.9253C9.49677 11.6664 9.84799 11.5209 10.2142 11.5209H10.6742V25.3259H24.4784V25.7859C24.4784 26.1521 24.3329 26.5033 24.0739 26.7623C23.815 27.0212 23.4638 27.1667 23.0975 27.1667H10.2142C9.84799 27.1667 9.49677 27.0212 9.23781 26.7623C8.97885 26.5033 8.83337 26.1521 8.83337 25.7859V12.9017Z" fill="#1B2D51"/>
<path d="M26.2467 8.83337H13.3583C13.1157 8.8349 12.8834 8.93197 12.7118 9.10355C12.5402 9.27513 12.4432 9.5074 12.4417 9.75004V22.6384C12.4432 22.881 12.5402 23.1133 12.7118 23.2849C12.8834 23.4564 13.1157 23.5535 13.3583 23.555H26.2425C26.4851 23.5535 26.7174 23.4564 26.889 23.2849C27.0605 23.1133 27.1576 22.881 27.1591 22.6384V9.75004C27.1576 9.50811 27.0611 9.27646 26.8905 9.105C26.7198 8.93354 26.4886 8.83599 26.2467 8.83337ZM24.9308 21.7175H14.6742C14.6243 21.7195 14.5745 21.7116 14.5277 21.6942C14.4809 21.6768 14.438 21.6503 14.4016 21.6162C14.3652 21.582 14.3359 21.541 14.3154 21.4955C14.295 21.4499 14.2838 21.4008 14.2825 21.3509C14.284 21.2727 14.3106 21.197 14.3583 21.135L17.1625 18.1509C17.2387 18.0779 17.3397 18.0366 17.4452 18.0352C17.5507 18.0338 17.6527 18.0724 17.7308 18.1434L19.0175 19.5059L21.43 15.9867C21.4693 15.9357 21.52 15.8945 21.5781 15.8667C21.6362 15.8389 21.7 15.8251 21.7644 15.8265C21.8288 15.8279 21.892 15.8444 21.9488 15.8747C22.0057 15.9049 22.0546 15.9482 22.0917 16.0009L25.2808 21.1634C25.3126 21.2221 25.3281 21.2882 25.3259 21.3549C25.3236 21.4216 25.3037 21.4865 25.268 21.5429C25.2324 21.5993 25.1824 21.6453 25.1231 21.6759C25.0638 21.7066 24.9975 21.721 24.9308 21.7175Z" fill="#1B2D51"/>
</svg>
