<svg width="356" height="200" viewBox="0 0 356 200" fill="none" xmlns="http://www.w3.org/2000/svg">
<g clip-path="url(#clip0_2287_2909)">
<path d="M114.312 57.5853L114.377 78.4633L113.857 81.6503C113.792 81.8503 113.727 82.0403 113.467 82.1053C112.816 82.3427 112.115 82.4076 111.431 82.2937C110.748 82.1798 110.106 81.891 109.567 81.4553C109.386 81.3109 109.269 81.1006 109.242 80.8703C108.917 73.0703 109.177 65.3253 109.112 57.5853C109.047 54.5933 110.478 53.1623 113.535 54.1383C113.634 54.1634 113.721 54.223 113.781 54.3063C113.84 54.3896 113.868 54.4912 113.86 54.5933L114.312 57.5853Z" fill="#D1DBEA"/>
<path d="M114.311 57.582C134.734 57.6487 155.2 57.6704 175.711 57.647C183.386 57.647 188.849 59.468 189.695 68.054C174.085 68.054 158.497 68.1207 142.931 68.254C133.11 68.319 129.077 69.554 124.331 78.465H114.441L114.311 57.582Z" fill="#C4CEDE"/>
<path d="M189.699 68.0543C196.333 67.9876 202.966 68.0543 209.599 68.2543C225.274 68.7093 228.006 77.9453 227.42 91.6693C227.42 91.9943 227.485 92.8403 227.62 94.0763C227.36 102.791 227.295 111.442 227.62 120.157C227.42 124.97 227.82 130.889 226.514 135.051C224.303 142.401 218.904 146.108 210.314 146.108C177.793 146.175 155.16 146.197 142.414 146.173C131.162 146.108 123.614 141.36 123.487 129.002C123.357 114.368 123.357 99.7343 123.617 85.0343C123.659 82.8505 123.898 80.675 124.332 78.5343C129.08 69.5583 133.112 68.3233 142.932 68.2583C158.475 68.1223 174.064 68.0543 189.699 68.0543ZM166.999 92.1843C166.396 91.8447 165.714 91.6687 165.022 91.6738C164.33 91.6788 163.651 91.8647 163.053 92.2131C162.454 92.5615 161.958 93.0602 161.612 93.6598C161.266 94.2594 161.082 94.939 161.08 95.6313V118.59C161.077 119.112 161.177 119.63 161.375 120.112C161.573 120.595 161.865 121.034 162.235 121.403C162.604 121.772 163.042 122.064 163.525 122.262C164.008 122.46 164.525 122.561 165.047 122.557C165.73 122.546 166.4 122.368 166.998 122.037L187.291 110.59C188.195 110.062 188.857 109.203 189.137 108.195C189.417 107.186 189.293 106.109 188.791 105.19C188.468 104.54 187.941 104.013 187.291 103.69L166.999 92.1843Z" fill="#D1DBEA"/>
<path d="M234.057 120.217C233.857 111.439 233.857 102.658 234.057 93.8749C235.748 92.3139 238.74 88.5419 240.691 87.8259C241.732 87.4359 243.683 87.4359 246.545 87.8909C246.745 87.9559 246.87 88.0209 246.87 88.2809L246.935 126.265C246.938 126.308 246.931 126.352 246.916 126.392C246.9 126.433 246.876 126.47 246.846 126.501C246.815 126.531 246.778 126.555 246.737 126.57C246.697 126.586 246.653 126.592 246.61 126.59L240.561 126.525C240.44 126.531 240.32 126.511 240.207 126.466C240.095 126.421 239.994 126.353 239.911 126.265L234.057 120.217Z" fill="#D1DBEA"/>
<path d="M166.995 92.1827L187.288 103.63C188.192 104.158 188.854 105.017 189.134 106.025C189.414 107.034 189.29 108.111 188.788 109.03C188.465 109.68 187.938 110.207 187.288 110.53L166.995 121.972C166.392 122.311 165.71 122.487 165.018 122.482C164.326 122.477 163.647 122.291 163.049 121.943C162.45 121.595 161.954 121.096 161.608 120.496C161.262 119.897 161.078 119.217 161.076 118.525V95.5647C161.073 95.043 161.173 94.5258 161.371 94.0432C161.569 93.5605 161.861 93.122 162.23 92.7529C162.599 92.3839 163.037 92.0918 163.52 91.8935C164.002 91.6952 164.519 91.5947 165.041 91.5977C165.73 91.6313 166.401 91.832 166.995 92.1827Z" fill="white"/>
<path d="M234.052 93.9395C233.857 102.72 233.857 111.501 234.052 120.281L227.552 120.151C227.292 111.436 227.292 102.785 227.552 94.0704L234.052 93.9395Z" fill="#C4CEDE"/>
</g>
<defs>
<clipPath id="clip0_2287_2909">
<rect width="356" height="200" fill="white"/>
</clipPath>
</defs>
</svg>
