<svg width="30" height="30" viewBox="0 0 30 30" fill="none" xmlns="http://www.w3.org/2000/svg">
<g clip-path="url(#clip0_156_12477)">
<path d="M26 0H4C1.79086 0 0 1.79086 0 4V26C0 28.2091 1.79086 30 4 30H26C28.2091 30 30 28.2091 30 26V4C30 1.79086 28.2091 0 26 0Z" fill="#EDA918"/>
<path d="M10.8504 21.5766C10.8504 22.9157 9.76432 24.0018 8.42519 24.0018C7.08607 24.0018 6 22.9157 6 21.5766C6 20.2375 7.08607 19.1514 8.42519 19.1514C9.76081 19.1479 10.8469 20.2304 10.8504 21.566V21.5766Z" fill="white"/>
<path d="M16.1366 23.8572C15.3634 23.8607 14.7026 23.3018 14.5726 22.5426C14.2738 20.7641 13.4232 19.1227 12.1474 17.8504C10.8821 16.571 9.24769 15.724 7.47273 15.4182C6.71354 15.2846 6.1582 14.6274 6.1582 13.8541C6.1582 12.8735 7.0369 12.1213 8.00346 12.2865C12.9558 13.1336 16.8712 17.0561 17.7148 22.0119C17.88 22.9785 17.1278 23.8572 16.1472 23.8572H16.1366Z" fill="white"/>
<path d="M20.8246 22.4341C20.083 15.4643 14.5437 9.91096 7.59147 9.16934C6.78307 9.08499 6.16798 8.40312 6.16798 7.59121C6.16447 6.71252 6.87445 6.00253 7.74963 5.99902C7.80587 5.99902 7.85859 6.00253 7.91482 6.00605C16.3643 6.8988 23.0987 13.6437 23.9914 22.1073C24.0793 22.9789 23.4466 23.7592 22.575 23.8471C22.5187 23.8541 22.466 23.8541 22.4098 23.8541H22.4027C21.5873 23.8576 20.9089 23.2425 20.8246 22.4341Z" fill="white"/>
</g>
<defs>
<clipPath id="clip0_156_12477">
<rect width="30" height="30" fill="white"/>
</clipPath>
</defs>
</svg>
